<svg xmlns="http://www.w3.org/2000/svg" version="1.1" xmlns:xlink="http://www.w3.org/1999/xlink" xmlns:svgjs="http://svgjs.dev/svgjs" width="1000" height="1000" viewBox="0 0 1000 1000"><rect width="1000" height="1000" fill="#000000"></rect><g transform="matrix(0.7,0,0,0.7,149.5757731682756,391.82767013977605)"><svg viewBox="0 0 396 123" data-background-color="#ffffff" preserveAspectRatio="xMidYMid meet" height="310" width="1000" xmlns="http://www.w3.org/2000/svg" xmlns:xlink="http://www.w3.org/1999/xlink"><g id="tight-bounds" transform="matrix(1,0,0,1,0.23999118339690995,-0.18573007922790907)"><svg viewBox="0 0 395.52 123.3714601584558" height="123.3714601584558" width="395.52"><g><svg viewBox="0 0 395.52 123.3714601584558" height="123.3714601584558" width="395.52"><g transform="matrix(1,0,0,1,0,74.20632329257344)"><svg viewBox="0 0 395.52 49.16513686588236" height="49.16513686588236" width="395.52"><g><svg viewBox="0 0 395.52 49.16513686588236" height="49.16513686588236" width="395.52"><g><svg viewBox="0 0 395.52 26.51732553891122" height="26.51732553891122" width="395.52"><g transform="matrix(1,0,0,1,0,0)"><svg width="395.52" viewBox="0.15000000596046448 -35.54999923706055 547.3499755859375 36.70000076293945" height="26.51732553891122" data-palette-color="#7c4e29"><path d="M30.4-1.95L30.75 0 21.05 0 19.9-1.2 23.8-2.3 22.25-9.35 21.05-11.65 8.65-10.1 7.85-7.4 7.1-2.3 10.2-1.2 10.2 0.4 0.15-0.35 0.15-1.95 3.2-2.7 12.5-35.3 17.95-34.5 27.7-2.7 30.4-1.95ZM9.8-13.15L19.9-15.1 15.65-30.65 14.9-30.25 9.8-14 9.8-13.15ZM53.75-4.85L53.45-0.35 33.65 1.15 33.55 0.1 36.3-1.6 35.45-32.5 32.3-33.55 32.5-34.9 43.45-34.95 43.7-33.15 40.75-32.25 40.65-2.15 49.8-4.1 49.15-7.45 53.7-8 53.75-4.85ZM83.5-7.3L83.55 0.6 57.55 0.25 57.3-1.45 62.3-2.35 60.6-32.15 56.15-33.7 55.75-35.45 82.65-34.8 82.7-28.35 80.15-28.45 79.4-31.6 65.84-31.65 64.9-30.4 65.15-19.65 80.55-18.6 80.09-16.4 65.3-16.1 65.15-11.95 67.7-3.45 80.34-2.95 80.95-7 83.5-7.3ZM119.19-1.75L119.59 0.15 108.99 0.45 108.79-0.9 111.14-1.95 104.89-13.15 102.69-16.65 94.74-1.95 97.19-1.1 97.04 0.35 86.09 0.3 86.04-1.25 89.64-2.25 100.89-19.3 91.49-33.1 88.39-34.05 88.44-35.5 99.29-35.55 99.54-34.2 96.84-33.25 102.84-22.05 103.74-20.6 110.94-32.9 108.44-34.25 108.64-35.5 119.19-34.75 118.84-32.85 115.09-32.1 105.24-18.4 105.24-18.3 115.24-2.75 119.19-1.75ZM149.99-1.95L150.34 0 140.64 0 139.49-1.2 143.39-2.3 141.84-9.35 140.64-11.65 128.24-10.1 127.44-7.4 126.69-2.3 129.79-1.2 129.79 0.4 119.74-0.35 119.74-1.95 122.79-2.7 132.09-35.3 137.54-34.5 147.29-2.7 149.99-1.95ZM129.39-13.15L139.49-15.1 135.24-30.65 134.49-30.25 129.39-14 129.39-13.15ZM180.54-2.9L184.19-1.75 184.44 0.05 173.94-0.15 173.79-1.4 176.29-2.4 159.44-27.55 159.69-2.45 162.24-1.6 162.44 0.25 151.99 0.05 151.89-1.2 155.99-2.8 155.64-32.5 152.39-33.4 152.44-34.85 163.29-34.95 163.49-33.5 160.64-32.65 177.49-6.9 177.99-32.7 174.44-33.6 174.49-35.05 185.29-35.1 185.54-33.75 182.19-32.7 180.54-2.9ZM213.84-10.65L214.39-22.8 207.79-30.2 202.24-31.55 198.54-30.55 198.24-4.65 207.79-3.7 213.84-10.65ZM208.34-34.3L218.34-23.65 216.74-7.6 208.74 0.4 196.04-0.5 188.54-0.35 188.69-1.9 194.09-3.15 194.29-31.85 190.79-33.2 190.99-35 195.94-35.25 208.34-34.3ZM240.88-19.15L245.33-23.9 243.53-30.35 236.18-31.65 231.03-30.85 231.88-19.75 240.88-19.15ZM252.33-9.45L255.48-6.15 249.28-0.6 245.38-1.25 242.73-13 238.03-16.45 231.53-15.5 231.68-3.1 234.83-2.05 235.23-0.15 224.48-0.3 224.38-1.65 227.33-2.8 226.73-29.25 224.93-31.2 221.33-31.6 221.48-34.3 225.58-34.4 227.68-33.55 228.93-34.65 242.53-34.45 248.83-28.65 247.93-20.3 243.58-17 247.28-13.45 247.63-4.45 248.73-4.05 252.33-9.45ZM264.58-2.1L267.53-1 267.63 0.5 258.08-0.25 258.03-1.7 261.48-2.8 260.63-32.75 256.98-34 257.08-35.35 267.78-35.45 268.08-33.65 264.73-32.65 264.58-2.1ZM299.98-1.95L300.33 0 290.63 0 289.48-1.2 293.38-2.3 291.83-9.35 290.63-11.65 278.23-10.1 277.43-7.4 276.68-2.3 279.78-1.2 279.78 0.4 269.73-0.35 269.73-1.95 272.78-2.7 282.08-35.3 287.53-34.5 297.28-2.7 299.98-1.95ZM279.38-13.15L289.48-15.1 285.23-30.65 284.48-30.25 279.38-14 279.38-13.15ZM298.88-34.95L303.38-34.7 303.23-32.45 302.43-23 299.93-22.8 298.88-34.95ZM313.52-34.3L325.82-35.2 328.97-33.05 330.37-35 333.02-32.9 328.32-27.25 326.42-29 324.02-32.1 316.52-30.9 312.57-26.9 315.62-21.25 328.57-17.85 331.62-14.1 330.72-4.35 320.37 0.45 311.22-2.05 309.67 0.45 306.62-0.25 309.67-6.95 312.22-6.2 320.12-3.65 327.92-6.75 326.42-14.5 311.07-17.65 308.22-28.1 313.52-34.3ZM373.22-4.85L372.92-0.35 353.12 1.15 353.02 0.1 355.77-1.6 354.92-32.5 351.77-33.55 351.97-34.9 362.92-34.95 363.17-33.15 360.22-32.25 360.12-2.15 369.27-4.1 368.62-7.45 373.17-8 373.22-4.85ZM383.32-2.1L386.27-1 386.37 0.5 376.82-0.25 376.77-1.7 380.22-2.8 379.37-32.75 375.72-34 375.82-35.35 386.52-35.45 386.82-33.65 383.47-32.65 383.32-2.1ZM407.21-3.8L411.91-8.2 411.66-12.95 407.01-17.2 400.01-15.9 399.21-15.25 398.91-4.45 400.11-3.5 407.21-3.8ZM400.61-31.45L398.71-30.8 399.11-20.55 399.66-19.55 406.76-21.1 411.01-24.85 407.86-31.55 400.61-31.45ZM413.76-16L415.91-7.7 409.81 0 395.46-0.3 395.46-0.3 390.06-0.35 389.81-2 395.41-2.95 394.56-31.7 390.26-33.15 389.91-34.8 395.66-34.8 395.71-34.8 402.71-35 410.61-34 414.86-23.9 409.91-18.65 413.76-16ZM439.46-19.15L443.91-23.9 442.11-30.35 434.76-31.65 429.61-30.85 430.46-19.75 439.46-19.15ZM450.91-9.45L454.06-6.15 447.86-0.6 443.96-1.25 441.31-13 436.61-16.45 430.11-15.5 430.26-3.1 433.41-2.05 433.81-0.15 423.06-0.3 422.96-1.65 425.91-2.8 425.31-29.25 423.51-31.2 419.91-31.6 420.06-34.3 424.16-34.4 426.26-33.55 427.51-34.65 441.11-34.45 447.41-28.65 446.51-20.3 442.16-17 445.86-13.45 446.21-4.45 447.31-4.05 450.91-9.45ZM484.46-1.95L484.81 0 475.11 0 473.96-1.2 477.86-2.3 476.31-9.35 475.11-11.65 462.71-10.1 461.91-7.4 461.16-2.3 464.26-1.2 464.26 0.4 454.21-0.35 454.21-1.95 457.26-2.7 466.56-35.3 472.01-34.5 481.76-2.7 484.46-1.95ZM463.86-13.15L473.96-15.1 469.71-30.65 468.96-30.25 463.86-14 463.86-13.15ZM504.41-19.15L508.86-23.9 507.06-30.35 499.71-31.65 494.56-30.85 495.41-19.75 504.41-19.15ZM515.86-9.45L519.01-6.15 512.81-0.6 508.91-1.25 506.26-13 501.56-16.45 495.06-15.5 495.21-3.1 498.36-2.05 498.76-0.15 488.01-0.3 487.91-1.65 490.86-2.8 490.26-29.25 488.46-31.2 484.86-31.6 485.01-34.3 489.11-34.4 491.21-33.55 492.46-34.65 506.06-34.45 512.36-28.65 511.46-20.3 507.11-17 510.81-13.45 511.16-4.45 512.26-4.05 515.86-9.45ZM532.45-3L535.8-1.95 536.05-0.1 525.55-0.3 525.45-1.5 529-2.9 528.85-15.35 518.7-32.65 516-33.7 516.15-35 526.65-35.2 526.3-33.35 524.55-32.75 531.05-19.45 539.6-33.1 536.4-33.95 536.5-35.45 547.25-35.5 547.5-34.05 543.4-32.75 532.15-15.7 532.45-3Z" opacity="1" transform="matrix(1,0,0,1,0,0)" fill="#ffffff" class="undefined-text-0" data-fill-palette-color="primary" id="text-0"></path></svg></g></svg></g><g transform="matrix(1,0,0,1,0,32.777429682835226)"><svg viewBox="0 0 395.52 16.387707183047134" height="16.387707183047134" width="395.52"><g transform="matrix(1,0,0,1,0,0)"><svg width="395.52" viewBox="5 -36.349998474121094 894.2100219726562 37.04999923706055" height="16.387707183047134" data-palette-color="#7c4e29"><path d="M22.4-17.9Q24.85-16.4 26.25-14.2 27.65-12 27.65-9.25L27.65-9.25Q27.65-6.15 25.93-3.7 24.2-1.25 20.95-0.2L20.95-0.2Q18.8 0.5 15.1 0.5L15.1 0.5Q9.8 0.5 7.6 0.25L7.6 0.25 5-0.05 5-34.75 16-34.75Q18.3-34.75 20.1-34.1L20.1-34.1Q22.95-33.1 24.53-30.9 26.1-28.7 26.1-25.7L26.1-25.7Q26.1-23.4 25.18-21.65 24.25-19.9 22.3-18.95L22.3-18.95Q21.8-18.7 20.8-18.4L20.8-18.4Q22.05-18.1 22.4-17.9L22.4-17.9ZM16.7-31.95L8-31.95 8-19.5 15.95-19.5Q19.15-19.5 21.13-21.15 23.1-22.8 23.1-25.9L23.1-25.9Q23.1-28.65 21.43-30.18 19.75-31.7 16.7-31.95L16.7-31.95ZM15.6-2.25Q19.85-2.25 22.25-4.05 24.65-5.85 24.65-9.25L24.65-9.25Q24.65-12.55 22.45-14.65 20.25-16.75 16.3-16.75L16.3-16.75 8-16.75 8-2.5 12.25-2.35 15.6-2.25ZM92.19-11.45Q92.24-7.95 93.89-5.05 95.54-2.15 100.49-2.15L100.49-2.15Q102.64-2.15 104.46-2.7 106.29-3.25 108.44-4.5L108.44-4.5 109.74-2.4Q107.74-1.05 105.29-0.25 102.84 0.55 100.29 0.55L100.29 0.55Q95.04 0.55 92.11-2.83 89.19-6.2 89.19-11.7L89.19-11.7Q89.19-15.25 90.49-18.38 91.79-21.5 94.34-23.45 96.89-25.4 100.34-25.4L100.34-25.4Q103.24-25.4 105.61-24.03 107.99-22.65 109.36-20.28 110.74-17.9 110.74-15L110.74-15Q110.74-14.2 110.69-13.58 110.64-12.95 110.59-12.5L110.59-12.5 110.49-11.45 92.19-11.45ZM92.34-14.15L107.69-14.15Q107.74-14.5 107.74-15.15L107.74-15.15Q107.74-17.25 106.74-18.98 105.74-20.7 104.04-21.7 102.34-22.7 100.29-22.7L100.29-22.7Q97.24-22.7 95.06-20.48 92.89-18.25 92.34-14.15L92.34-14.15ZM180.62 0.7Q177.02 0.7 175.25-1.2 173.47-3.1 173.47-7.2L173.47-7.2 173.47-31.25 176.47-31.25 176.47-25 184.32-25 184.32-22.3 176.47-22.3 176.47-7.2Q176.47-4.05 177.65-3.03 178.82-2 180.57-2L180.57-2Q181.62-2 182.32-2.13 183.02-2.25 183.87-2.75L183.87-2.75 185.22-0.45Q183.37 0.7 180.62 0.7L180.62 0.7ZM254.31 0.7Q250.71 0.7 248.94-1.2 247.16-3.1 247.16-7.2L247.16-7.2 247.16-31.25 250.16-31.25 250.16-25 258.01-25 258.01-22.3 250.16-22.3 250.16-7.2Q250.16-4.05 251.34-3.03 252.51-2 254.26-2L254.26-2Q255.31-2 256.01-2.13 256.71-2.25 257.56-2.75L257.56-2.75 258.91-0.45Q257.06 0.7 254.31 0.7L254.31 0.7ZM321.4-11.45Q321.45-7.95 323.1-5.05 324.75-2.15 329.7-2.15L329.7-2.15Q331.85-2.15 333.67-2.7 335.5-3.25 337.65-4.5L337.65-4.5 338.95-2.4Q336.95-1.05 334.5-0.25 332.05 0.55 329.5 0.55L329.5 0.55Q324.25 0.55 321.32-2.83 318.4-6.2 318.4-11.7L318.4-11.7Q318.4-15.25 319.7-18.38 321-21.5 323.55-23.45 326.1-25.4 329.55-25.4L329.55-25.4Q332.45-25.4 334.82-24.03 337.2-22.65 338.57-20.28 339.95-17.9 339.95-15L339.95-15Q339.95-14.2 339.9-13.58 339.85-12.95 339.8-12.5L339.8-12.5 339.7-11.45 321.4-11.45ZM321.55-14.15L336.9-14.15Q336.95-14.5 336.95-15.15L336.95-15.15Q336.95-17.25 335.95-18.98 334.95-20.7 333.25-21.7 331.55-22.7 329.5-22.7L329.5-22.7Q326.45-22.7 324.27-20.48 322.1-18.25 321.55-14.15L321.55-14.15ZM413.24-25.5Q414.74-25.5 416.24-25.05L416.24-25.05 416.24-22.25Q414.79-22.6 413.34-22.6L413.34-22.6Q410.79-22.6 409.19-21.35L409.19-21.35Q407.59-20.1 406.34-17.8L406.34-17.8 406.34 0 403.34 0 403.34-17.5Q403.34-21.45 401.24-23.3L401.24-23.3 403.24-25.3Q404.14-24.75 404.94-23.65 405.74-22.55 406.09-21.2L406.09-21.2Q407.49-23.5 408.89-24.35L408.89-24.35Q410.64-25.5 413.24-25.5L413.24-25.5ZM574.01-2.8L575.26-0.35Q574.26 0.35 573.06 0.35L573.06 0.35Q571.61 0.35 570.76-0.23 569.91-0.8 569.31-1.6L569.31-1.6 563.36-9.65Q561.61-12 560.28-12.83 558.96-13.65 556.66-13.8L556.66-13.8 556.66-16.6 561.01-16.6Q564.26-16.6 566.21-18.55 568.16-20.5 568.16-23.85L568.16-23.85Q568.16-27.15 566.31-29.28 564.46-31.4 561.56-31.4L561.56-31.4 553.56-31.4 553.56 0 550.56 0 550.56-34.2 561.76-34.2Q564.46-34.2 566.58-32.88 568.71-31.55 569.93-29.25 571.16-26.95 571.16-24.15L571.16-24.15Q571.16-21.5 570.11-19.45 569.06-17.4 567.61-16.2 566.16-15 564.91-14.75L564.91-14.75Q564.06-14.6 562.93-14.63 561.81-14.65 561.76-14.65L561.76-14.65Q563.36-14.3 564.51-12.8L564.51-12.8 566.51-10.05Q567.41-8.85 569.23-6.35 571.06-3.85 571.61-3.25L571.61-3.25Q571.96-2.85 572.23-2.68 572.51-2.5 573.01-2.5L573.01-2.5Q573.66-2.5 574.01-2.8L574.01-2.8ZM636-11.45Q636.05-7.95 637.7-5.05 639.35-2.15 644.3-2.15L644.3-2.15Q646.45-2.15 648.27-2.7 650.1-3.25 652.25-4.5L652.25-4.5 653.55-2.4Q651.55-1.05 649.1-0.25 646.65 0.55 644.1 0.55L644.1 0.55Q638.85 0.55 635.92-2.83 633-6.2 633-11.7L633-11.7Q633-15.25 634.3-18.38 635.6-21.5 638.15-23.45 640.7-25.4 644.15-25.4L644.15-25.4Q647.05-25.4 649.42-24.03 651.8-22.65 653.17-20.28 654.55-17.9 654.55-15L654.55-15Q654.55-14.2 654.5-13.58 654.45-12.95 654.4-12.5L654.4-12.5 654.3-11.45 636-11.45ZM636.15-14.15L651.5-14.15Q651.55-14.5 651.55-15.15L651.55-15.15Q651.55-17.25 650.55-18.98 649.55-20.7 647.85-21.7 646.15-22.7 644.1-22.7L644.1-22.7Q641.05-22.7 638.87-20.48 636.7-18.25 636.15-14.15L636.15-14.15ZM734.53 0.4Q733.58-0.35 733.01-1.25 732.43-2.15 731.93-3.6L731.93-3.6Q730.93-1.65 728.96-0.58 726.98 0.5 724.18 0.5L724.18 0.5Q720.23 0.5 717.86-1.6 715.48-3.7 715.48-7.3L715.48-7.3Q715.48-11.1 718.16-13.2 720.83-15.3 725.73-15.3L725.73-15.3 731.53-15.3 731.53-17.1Q731.53-20.1 730.23-21.55 728.93-23 726.23-23L726.23-23Q724.23-23 722.13-22.28 720.03-21.55 718.38-20.3L718.38-20.3 717.03-22.5Q718.88-24.05 721.31-24.88 723.73-25.7 726.28-25.7L726.28-25.7Q730.33-25.7 732.43-23.63 734.53-21.55 734.53-17.65L734.53-17.65 734.53-7.2Q734.53-3.35 736.48-1.25L736.48-1.25 734.53 0.4ZM724.23-2.2Q727.58-2.2 729.56-4.05 731.53-5.9 731.53-8.85L731.53-8.85 731.53-12.6 726.43-12.6Q722.18-12.6 720.33-11.38 718.48-10.15 718.48-7.35L718.48-7.35Q718.48-4.85 719.98-3.53 721.48-2.2 724.23-2.2L724.23-2.2ZM807.87 0.5Q804.52 0.5 802.12-1.23 799.72-2.95 798.47-5.88 797.22-8.8 797.22-12.3L797.22-12.3Q797.22-16.1 798.65-19.07 800.07-22.05 802.82-23.73 805.57-25.4 809.37-25.4L809.37-25.4Q810.52-25.4 812.3-25.28 814.07-25.15 815.42-24.95L815.42-24.95 815.42-36.35 818.17-36.35 818.17-7.2Q818.17-3.35 820.12-1.25L820.12-1.25 818.42 0.4Q816.47-1.05 815.77-3.9L815.77-3.9Q814.62-1.65 812.5-0.58 810.37 0.5 807.87 0.5L807.87 0.5ZM808.02-2.1Q810.27-2.1 812.05-3.2 813.82-4.3 814.72-6.2L814.72-6.2Q815.42-7.6 815.42-9.4L815.42-9.4 815.42-22.3Q812.67-22.65 811.45-22.73 810.22-22.8 808.92-22.8L808.92-22.8Q806.17-22.8 804.17-21.45 802.17-20.1 801.12-17.73 800.07-15.35 800.07-12.45L800.07-12.45Q800.07-8.1 802.17-5.1 804.27-2.1 808.02-2.1L808.02-2.1ZM890.36 0.6Q885.31 0.6 880.96-3.3L880.96-3.3 882.61-5.3Q884.51-3.75 886.38-2.93 888.26-2.1 890.41-2.1L890.41-2.1Q893.11-2.1 894.63-3.38 896.16-4.65 896.16-6.85L896.16-6.85Q896.16-8.25 895.48-9.13 894.81-10 893.68-10.55 892.56-11.1 889.66-12.3L889.66-12.3Q887.01-13.4 885.56-14.2 884.11-15 883.26-16.18 882.41-17.35 882.41-19.15L882.41-19.15Q882.41-22.1 884.51-23.88 886.61-25.65 890.11-25.65L890.11-25.65Q891.91-25.65 893.68-25.15 895.46-24.65 896.71-23.7L896.71-23.7 895.46-21.55Q893.16-22.95 890.26-22.95L890.26-22.95Q887.96-22.95 886.71-22.05 885.46-21.15 885.46-19.5L885.46-19.5Q885.46-18.25 886.13-17.45 886.81-16.65 887.88-16.13 888.96-15.6 891.46-14.6L891.46-14.6Q894.31-13.45 895.88-12.53 897.46-11.6 898.33-10.28 899.21-8.95 899.21-7L899.21-7Q899.21-3.55 896.78-1.48 894.36 0.6 890.36 0.6L890.36 0.6Z" opacity="1" transform="matrix(1,0,0,1,0,0)" fill="#ffffff" class="undefined-text-1" data-fill-palette-color="secondary" id="text-1"></path></svg></g></svg></g></svg></g></svg></g><g transform="matrix(1,0,0,1,150.4902555244914,0)"><svg viewBox="0 0 94.53948895101718 67.94621914864943" height="67.94621914864943" width="94.53948895101718"><g><svg xmlns="http://www.w3.org/2000/svg" xmlns:xlink="http://www.w3.org/1999/xlink" version="1.0" x="8" y="0" viewBox="5.185000419616699 11.229998588562012 89.6290054321289 77.54000091552734" enable-background="new 0 0 100 100" xml:space="preserve" height="67.94621914864943" width="78.53948895101718" class="icon-icon-0" data-fill-palette-color="accent" id="icon-0"><g fill="#7c4e29" data-fill-palette-color="accent"><path fill="none" d="M89.354 77.49c0 2.713-1.854 5.215-4.511 6.083-0.021 0.009-0.041 0.015-0.063 0.019l-0.617 0.152c-0.028 0.008-0.058 0.012-0.086 0.017l-21.545 3.167h25.883c2.521 0 4.572-2.051 4.572-4.574V25.648c0-2.2-1.561-4.04-3.633-4.475 0 0.002 0 0.002 0 0.004V77.49z"></path><path fill="none" d="M15.789 83.744l-0.617-0.15c-0.021-0.006-0.043-0.012-0.064-0.02-2.636-0.861-4.408-3.308-4.408-6.082V21.619c-0.031-0.097-0.052-0.199-0.052-0.305 0-0.048 0.007-0.094 0.009-0.143-2.076 0.434-3.641 2.274-3.641 4.478v56.704c0 2.523 2.053 4.574 4.572 4.574h25.833l-21.546-3.166C15.846 83.758 15.818 83.752 15.789 83.744z"></path><path fill="#ffffff" d="M88.91 19.271c-0.606-1.792-1.982-3.235-3.736-3.92-0.725-2.384-2.963-4.121-5.607-4.121-0.029 0-0.057 0-0.085 0.002l-0.968 0.088c-0.061 0.003-0.116 0.017-0.172 0.032l-14.18 4.105v-0.162c0-0.504-0.409-0.914-0.914-0.914-0.504 0-0.914 0.41-0.914 0.914v0.692l-11.256 3.259h-2.246l-27.264-7.894c-0.057-0.017-0.113-0.029-0.172-0.032l-0.97-0.088c-0.026-0.002-0.058-0.002-0.082-0.002-2.646 0-4.886 1.739-5.606 4.121-1.764 0.686-3.146 2.125-3.754 3.925-3.248 0.306-5.799 3.046-5.799 6.373v56.704c0 3.532 2.871 6.402 6.401 6.402h38.256c0.028 0.005 0.054 0.015 0.079 0.015h0.104c0.006 0 0.01 0 0.014 0 0.023 0 0.049-0.01 0.076-0.015h38.297c3.531 0 6.402-2.87 6.402-6.402V25.648C94.816 22.287 92.207 19.525 88.91 19.271zM12.974 19.246c0.36-0.709 0.903-1.312 1.565-1.748v1.748 1.83 53.65c0 2.506 1.621 4.71 4.033 5.486 0.021 0.008 0.043 0.014 0.063 0.019l18.495 4.806-20.946-3.08-0.541-0.133c-1.864-0.623-3.116-2.361-3.116-4.335V21.179c0-0.037-0.011-0.067-0.015-0.103-0.006-0.051-0.008-0.103-0.021-0.149C12.543 20.328 12.713 19.758 12.974 19.246zM11.588 86.928c-2.521 0-4.572-2.051-4.572-4.574V25.648c0-2.202 1.562-4.044 3.641-4.477-0.002 0.048-0.009 0.094-0.009 0.142 0 0.104 0.021 0.208 0.052 0.304v55.872c0 2.776 1.772 5.224 4.408 6.083 0.021 0.008 0.043 0.014 0.064 0.02l0.617 0.15c0.027 0.008 0.057 0.014 0.086 0.018l21.546 3.168H11.588zM49.392 21.405v64.927l-29.769-7.744-0.521-0.127c-1.638-0.541-2.734-2.037-2.734-3.735V21.076v-1.83-2.365c0-0.027-0.01-0.055-0.011-0.082-0.005-0.051-0.006-0.103-0.021-0.152 0.023-0.273 0.082-0.538 0.16-0.792 0.104-0.333 0.248-0.647 0.434-0.937 0.705-1.105 1.952-1.848 3.375-1.86l0.839 0.077 16.054 4.648 5.06 1.463 1.36 0.394 4.957 1.435 0.816 0.237L49.392 21.405 49.392 21.405zM85.511 74.727v-53.65-1.83-1.643c0.592 0.424 1.078 0.988 1.412 1.643 0.282 0.556 0.452 1.174 0.485 1.83 0.006 0.079 0.014 0.158 0.014 0.238 0 0.15 0.037 0.294 0.104 0.421V77.49c0 1.922-1.322 3.7-3.22 4.336l-0.54 0.131-20.967 3.084 17.967-4.674 0.555-0.135c0.021-0.005 0.043-0.011 0.064-0.02C83.814 79.431 85.511 77.174 85.511 74.727zM65.992 21.698c4.035 0 7.315 3.283 7.315 7.317 0 4.035-3.28 7.318-7.315 7.318s-7.316-3.283-7.316-7.318C58.676 24.981 61.957 21.698 65.992 21.698zM50.611 21.391v-0.104l0.727-0.211 4.967-1.438 1.352-0.393 4.68-1.354v0.869 0.486 0.436 0.957c-0.297 0.13-0.584 0.277-0.863 0.438-2.758 1.575-4.624 4.543-4.624 7.939 0 3.742 2.263 6.961 5.487 8.375v5.197c-3.227 1.414-5.487 4.634-5.487 8.377 0 3.742 2.263 6.963 5.487 8.378v5.341c0 0.505 0.41 0.914 0.914 0.914 0.505 0 0.914-0.409 0.914-0.914v-4.758c0.592 0.121 1.203 0.184 1.83 0.184 5.043 0 9.146-4.102 9.146-9.145 0-5.045-4.103-9.146-9.146-9.146-0.627 0-1.238 0.062-1.83 0.184v-4.026c0.592 0.122 1.203 0.187 1.83 0.187 5.043 0 9.146-4.104 9.146-9.146 0-3.396-1.864-6.365-4.625-7.939-1.334-0.763-2.875-1.207-4.521-1.207-0.627 0-1.238 0.065-1.83 0.187v-0.642-0.168-0.754V17.57v-0.207l14.604-4.228 0.839-0.077c1.423 0.013 2.665 0.755 3.371 1.861 0.185 0.289 0.335 0.603 0.438 0.938 0.094 0.303 0.147 0.619 0.164 0.949 0.005 0.064 0.011 0.128 0.011 0.195 0 0.143 0.032 0.278 0.092 0.402v1.842 1.83 53.65c0 1.654-1.16 3.188-2.827 3.736l-30.242 7.858V21.391H50.611zM65.992 43.648c4.035 0 7.315 3.283 7.315 7.316 0 4.035-3.28 7.315-7.315 7.315s-7.316-3.28-7.316-7.315C58.676 46.932 61.957 43.648 65.992 43.648zM92.986 82.354c0 2.523-2.051 4.574-4.572 4.574H62.531l21.545-3.166c0.028-0.004 0.058-0.01 0.086-0.018l0.617-0.15c0.022-0.006 0.043-0.012 0.063-0.02 2.655-0.869 4.511-3.371 4.511-6.082V21.179c0-0.002 0-0.002 0-0.005 2.072 0.436 3.633 2.274 3.633 4.476V82.354z" data-fill-palette-color="accent"></path><path fill="#ffffff" d="M68.418 34.068c-0.1-0.613-0.664-1.045-1.309-0.941-0.617 0.104-1.037 0.69-0.937 1.307 0.091 0.555 0.562 0.955 1.122 0.955 0.061 0 0.121-0.004 0.185-0.016C68.097 35.273 68.519 34.687 68.418 34.068z" data-fill-palette-color="accent"></path><path fill="#ffffff" d="M64.914 33.773c-1.6-0.361-2.898-1.493-3.482-3.025-0.118-0.314-0.475-0.474-0.785-0.354-0.314 0.119-0.474 0.47-0.354 0.786 0.728 1.917 2.354 3.331 4.354 3.782 0.047 0.012 0.092 0.014 0.135 0.014 0.279 0 0.53-0.191 0.596-0.475C65.449 34.174 65.242 33.849 64.914 33.773z" data-fill-palette-color="accent"></path><path fill="#ffffff" d="M68.418 56.19c-0.102-0.614-0.676-1.041-1.309-0.938-0.617 0.103-1.037 0.688-0.937 1.306 0.09 0.553 0.562 0.955 1.122 0.955 0.061 0 0.121-0.007 0.185-0.017C68.097 57.396 68.519 56.811 68.418 56.19z" data-fill-palette-color="accent"></path><path fill="#ffffff" d="M60.291 53.306c0.729 1.917 2.355 3.331 4.354 3.782 0.046 0.01 0.091 0.015 0.136 0.015 0.278 0 0.529-0.192 0.594-0.476 0.074-0.328-0.131-0.657-0.461-0.729-1.598-0.36-2.897-1.492-3.481-3.024-0.118-0.315-0.476-0.475-0.785-0.354C60.332 52.638 60.173 52.99 60.291 53.306z" data-fill-palette-color="accent"></path><path fill="#ffffff" d="M22.203 24.11l22.287 6.453c0.058 0.017 0.113 0.022 0.17 0.022 0.266 0 0.51-0.174 0.586-0.439 0.094-0.323-0.094-0.662-0.416-0.756l-22.286-6.452c-0.325-0.09-0.661 0.093-0.755 0.417C21.695 23.679 21.882 24.018 22.203 24.11z" data-fill-palette-color="accent"></path><path fill="#ffffff" d="M44.83 35.248l-22.286-6.451c-0.325-0.094-0.661 0.092-0.755 0.414-0.094 0.324 0.093 0.662 0.414 0.756L44.49 36.42c0.058 0.016 0.113 0.025 0.17 0.025 0.266 0 0.51-0.174 0.586-0.441C45.34 35.679 45.154 35.34 44.83 35.248z" data-fill-palette-color="accent"></path><path fill="#ffffff" d="M44.83 40.744l-22.286-6.453c-0.325-0.092-0.661 0.095-0.755 0.416-0.094 0.324 0.093 0.662 0.414 0.758l22.287 6.451c0.058 0.017 0.113 0.024 0.17 0.024 0.266 0 0.51-0.174 0.586-0.442C45.34 41.178 45.154 40.838 44.83 40.744z" data-fill-palette-color="accent"></path><path fill="#ffffff" d="M44.83 45.898l-22.286-6.453c-0.325-0.092-0.661 0.094-0.755 0.417s0.093 0.66 0.414 0.757L44.49 47.07c0.058 0.016 0.113 0.023 0.17 0.023 0.266 0 0.51-0.174 0.586-0.44C45.34 46.332 45.154 45.992 44.83 45.898z" data-fill-palette-color="accent"></path><path fill="#ffffff" d="M44.83 51.395l-22.286-6.452c-0.325-0.09-0.661 0.095-0.755 0.417-0.094 0.325 0.093 0.662 0.414 0.755l22.287 6.453c0.058 0.017 0.113 0.022 0.17 0.022 0.266 0 0.51-0.172 0.586-0.439C45.34 51.83 45.154 51.49 44.83 51.395z" data-fill-palette-color="accent"></path><path fill="#ffffff" d="M44.83 56.965l-22.286-6.452c-0.325-0.093-0.661 0.092-0.755 0.417-0.094 0.32 0.093 0.66 0.414 0.754l22.287 6.453c0.058 0.015 0.113 0.023 0.17 0.023 0.266 0 0.51-0.173 0.586-0.438C45.34 57.396 45.154 57.06 44.83 56.965z" data-fill-palette-color="accent"></path><path fill="#ffffff" d="M44.83 62.461l-22.286-6.453c-0.325-0.092-0.661 0.095-0.755 0.418-0.094 0.322 0.093 0.662 0.414 0.755l22.287 6.45c0.058 0.017 0.113 0.025 0.17 0.025 0.266 0 0.51-0.174 0.586-0.439C45.34 62.894 45.154 62.556 44.83 62.461z" data-fill-palette-color="accent"></path><path fill="#ffffff" d="M44.83 67.615l-22.286-6.451c-0.325-0.092-0.661 0.092-0.755 0.414-0.094 0.325 0.093 0.664 0.414 0.756l22.287 6.451c0.058 0.018 0.113 0.024 0.17 0.024 0.266 0 0.51-0.172 0.586-0.438C45.34 68.047 45.154 67.709 44.83 67.615z" data-fill-palette-color="accent"></path><path fill="#ffffff" d="M44.83 73.111L22.544 66.66c-0.325-0.092-0.661 0.092-0.755 0.416-0.094 0.322 0.093 0.663 0.414 0.758l22.287 6.451c0.058 0.014 0.113 0.024 0.17 0.024 0.266 0 0.51-0.174 0.586-0.44C45.34 73.543 45.154 73.205 44.83 73.111z" data-fill-palette-color="accent"></path></g></svg></g></svg></g><g><rect width="150.4902555244914" height="2.39135978297897" y="64.55485936567047" x="245.02974447550858" fill="#ffffff" data-fill-palette-color="accent"></rect><rect width="150.4902555244914" height="2.39135978297897" y="64.55485936567047" x="0" fill="#ffffff" data-fill-palette-color="accent"></rect><rect width="150.4902555244914" height="2.39135978297897" y="59.77213979971252" x="245.02974447550858" fill="#ffffff" data-fill-palette-color="accent"></rect><rect width="150.4902555244914" height="2.39135978297897" y="59.77213979971252" x="0" fill="#ffffff" data-fill-palette-color="accent"></rect></g></svg></g><defs></defs></svg><rect width="395.52" height="123.3714601584558" fill="none" stroke="none" visibility="hidden"></rect></g></svg></g></svg>